<?xml version="1.0" standalone="no"?>

<svg version="1.0" xmlns="http://www.w3.org/2000/svg"
 width="52.000000pt" height="52.000000pt" viewBox="0 0 52.000000 52.000000"
 preserveAspectRatio="xMidYMid meet">

<g transform="translate(0.000000,52.000000) scale(0.100000,-0.100000)"
fill="#000000" stroke="none">
<path d="M165 508 c-77 -28 -109 -74 -125 -180 -5 -35 -12 -77 -16 -95 -5 -28
-1 -38 30 -70 20 -21 49 -54 65 -73 22 -26 33 -32 41 -24 14 14 -20 73 -67
117 -38 35 -41 52 -13 60 15 4 20 14 20 36 0 24 6 34 24 41 13 5 31 18 39 30
l15 21 27 -27 c28 -27 34 -28 132 -8 31 6 32 5 38 -32 3 -22 10 -47 16 -56 14
-27 11 -58 -6 -65 -25 -9 -59 -83 -45 -97 9 -8 16 -5 30 14 32 42 50 60 60 60
15 0 12 -11 -10 -48 -11 -18 -32 -37 -46 -42 -33 -13 -84 -13 -84 0 0 17 -48
30 -74 21 -44 -17 -43 -65 1 -82 17 -6 34 -5 56 5 18 8 55 17 82 20 40 5 55
12 77 37 15 18 30 46 34 63 4 17 13 40 20 51 30 42 5 135 -36 135 -5 0 -12 17
-16 38 -13 72 -50 119 -116 147 -42 17 -109 19 -153 3z"/>
<path d="M130 265 c-15 -18 -10 -45 13 -59 34 -22 73 27 47 59 -16 19 -44 19
-60 0z"/>
<path d="M290 265 c-26 -32 13 -81 48 -59 22 14 27 41 12 59 -16 19 -44 19
-60 0z"/>
</g>
</svg>
